<svg xmlns="http://www.w3.org/2000/svg" width="32.264" height="32.266" viewBox="0 0 32.264 32.266"><g><path fill="#FCEE21" d="M16.041 0c-1.407.007-2.788.2-4.117.561l2.387 8.838c.635-.186 1.293-.28 1.953-.281.57.003 1.138.075 1.689.215l2.354-8.777c-1.425-.383-2.858-.563-4.266-.556z"/><path fill="#B6D134" d="M20.273.543l-2.334 8.785c1.211.299 2.319.915 3.212 1.785l6.387-6.385c-2.087-2.085-4.603-3.481-7.265-4.185z"/><path fill="#35A849" d="M27.514 4.703l-6.375 6.4c.901.874 1.551 1.974 1.881 3.184l8.691-2.328c-.764-2.85-2.245-5.315-4.197-7.256z"/><path fill="#069D7E" d="M31.701 11.928l-8.686 2.346c.165.601.248 1.221.248 1.844-.002.628-.089 1.253-.258 1.857l8.705 2.334c.765-2.85.715-5.725-.009-8.381z"/><path fill="#085BA7" d="M23.01 17.961c-.328 1.208-.974 2.307-1.871 3.18l6.399 6.398c2.086-2.086 3.481-4.603 4.186-7.264l-8.714-2.314z"/><path fill="#3F2F84" d="M21.148 21.129c-.891.866-1.996 1.479-3.203 1.775l2.361 8.809c2.851-.764 5.316-2.245 7.256-4.197l-6.414-6.387z"/><path fill="#5F2C83" d="M14.334 22.84l-2.377 8.873c2.851.764 5.727.713 8.383-.008l-2.379-8.805c-.555.142-1.124.214-1.697.217-.653-.002-1.302-.096-1.93-.277z"/><path fill="#7E2982" d="M11.256 21.008l-6.529 6.531c2.087 2.087 4.603 3.481 7.263 4.186l2.359-8.881c-1.172-.332-2.239-.965-3.093-1.836z"/><path fill="#CB202D" d="M9.502 17.91l-8.949 2.398c.764 2.851 2.246 5.316 4.197 7.256l6.517-6.547c-.847-.865-1.454-1.935-1.765-3.107z"/><path fill="#E54B27" d="M.553 11.959c-.764 2.851-.714 5.727.011 8.383l8.943-2.418c-.159-.589-.241-1.196-.242-1.807.003-.595.081-1.187.234-1.762l-8.946-2.396z"/><path fill="#ED7125" d="M4.731 4.734c-2.085 2.086-3.479 4.601-4.184 7.26l8.947 2.377c.303-1.175.906-2.251 1.75-3.123l-6.513-6.514z"/><path fill="#F7AB1B" d="M11.957.555c-2.849.763-5.315 2.245-7.255 4.197l6.535 6.506c.85-.881 1.915-1.524 3.09-1.865l-2.37-8.838z"/></g></svg>