<?xml version="1.0" encoding="utf-8"?>
<!-- Generator: Adobe Illustrator 16.0.0, SVG Export Plug-In . SVG Version: 6.00 Build 0)  -->
<!DOCTYPE svg PUBLIC "-//W3C//DTD SVG 1.1//EN" "http://www.w3.org/Graphics/SVG/1.1/DTD/svg11.dtd">
<svg version="1.1" id="Слой_1" xmlns="http://www.w3.org/2000/svg" xmlns:xlink="http://www.w3.org/1999/xlink" x="0px" y="0px"
	 width="20.84px" height="20.84px" viewBox="0 0 20.84 20.84" enable-background="new 0 0 20.84 20.84" xml:space="preserve">
<path fill="#FFFFFF" d="M14.734,6.105c-0.416-0.415-1.088-0.415-1.504,0L10.42,8.916L7.609,6.105c-0.416-0.415-1.088-0.415-1.504,0
	c-0.415,0.415-0.415,1.088,0,1.503l2.811,2.812L6.105,13.23c-0.415,0.416-0.415,1.088,0,1.504c0.208,0.207,0.479,0.311,0.752,0.311
	s0.544-0.104,0.752-0.311l2.811-2.811l2.811,2.811c0.208,0.207,0.479,0.311,0.752,0.311s0.544-0.104,0.752-0.311
	c0.415-0.416,0.415-1.088,0-1.504l-2.811-2.811l2.811-2.812C15.149,7.193,15.149,6.521,14.734,6.105z M10.42-0.002
	c-5.746,0-10.421,4.676-10.421,10.422S4.674,20.842,10.42,20.842s10.421-4.676,10.421-10.422S16.166-0.002,10.42-0.002z
	 M10.42,18.998c-4.73,0-8.579-3.848-8.579-8.578s3.849-8.579,8.579-8.579s8.579,3.849,8.579,8.579S15.15,18.998,10.42,18.998z"/>
</svg>
