<svg xmlns="http://www.w3.org/2000/svg" width="22.789" height="22.789" viewBox="0 0 22.789 22.789"><path fill="#fff" d="M8.199 9.711l-1.752 1.752 4.914 4.914 10.568-10.568-1.75-1.751-8.818 8.817-3.162-3.164zm11.804-.335c.162.646.242 1.292.242 2.019 0 4.927-3.957 8.885-8.885 8.885-4.926 0-8.883-3.958-8.883-8.885s3.957-8.885 8.883-8.885c2.424 0 4.605.97 6.139 2.504l1.131-1.131c-1.857-1.857-4.441-2.988-7.27-2.988-5.814 0-10.5 4.685-10.5 10.5s4.686 10.5 10.5 10.5c5.816 0 10.5-4.685 10.5-10.5 0-1.131-.16-2.262-.564-3.312l-1.293 1.293z"/></svg>