<svg xmlns="http://www.w3.org/2000/svg" width="26" height="26" viewBox="0 0 26 26"><path fill="#D9D9D9" d="M26 14.973v-3.998l-3.818-.623c-.199-.69-.473-1.352-.819-1.978l2.225-3.171-2.828-2.826-3.131 2.25c-.631-.351-1.299-.628-1.991-.828l-.666-3.799h-3.999l-.617 3.786c-.699.198-1.368.473-1.996.82l-3.122-2.231-2.827 2.826 2.196 3.14c-.354.635-.634 1.308-.835 2.007l-3.772.628v3.997l3.767.667c.2.699.479 1.371.834 2.007l-2.226 3.112 2.825 2.829 3.145-2.202c.634.351 1.304.627 2 .825l.63 3.789h3.997l.674-3.799c.696-.203 1.362-.482 1.99-.834l3.164 2.221 2.828-2.829-2.261-3.139c.347-.626.62-1.289.817-1.978l3.816-.669zm-13 1.667c-2.007 0-3.64-1.633-3.64-3.64s1.633-3.64 3.64-3.64 3.641 1.633 3.641 3.64-1.634 3.64-3.641 3.64z"/></svg>