<svg xmlns="http://www.w3.org/2000/svg" width="26" height="26" viewBox="0 0 26 26"><g enable-background="new"><path fill="#D9D9D9" d="M10.818.019c-.911 0-1.804.18-2.452.763-.648.583-.865 1.409-.865 2.266v1.426h2.271v-1.426c0-.557.121-.729.188-.788.067-.061.264-.167.859-.167h4.365c.595 0 .792.108.859.167.067.06.188.23.188.788v1.426h2.271v-1.426c0-.858-.218-1.684-.865-2.266-.648-.582-1.541-.763-2.452-.763h-4.365z"/><path fill="#E5E5E5" d="M23.909 4.047c0-.549-.489-.997-1.091-.997h-19.635c-.601 0-1.091.448-1.091.997h-1.092v1.994h24v-1.994h-1.091z"/><path fill="#E5E5E5" d="M3.183 7.037v15.953c0 1.648 1.467 2.99 3.273 2.99h13.091c1.804 0 3.273-1.342 3.273-2.99v-15.953h-19.636zm6.545 14.955h-2.182v-11.963h2.182v11.963zm4.364 0h-2.183v-11.963h2.183v11.963zm4.364 0h-2.182v-11.963h2.182v11.963z"/></g></svg>